<?xml version="1.0" encoding="UTF-8"?>
<svg id="Camada_2" data-name="Camada 2" xmlns="http://www.w3.org/2000/svg" viewBox="0 0 1606.87 825.47">
  <defs>
    <style>
      .cls-1 {
        fill: #fefffb;
      }

      .cls-2 {
        fill: #fcec12;
      }
    </style>
  </defs>
  <g id="Camada_1-2" data-name="Camada 1">
    <path class="cls-2" d="m325.57,125.28l-7.52,51.9s-245.22,109.07-245.22,288.85c9.03,145.17,165.48,191.81,274.55,233.18-25.57,0-188.8-24.07-292.61-123.36C-13.68,512.67-92.66,328.38,325.57,125.28Z"/>
    <path class="cls-2" d="m466.23,71.88s42.22,11.28,87.26,14.29c33.66-8.27,264.02-91.02,634.86-60.18-47.45-8.18-316.33-75.57-722.11,45.88Z"/>
    <path class="cls-2" d="m1463.65,488.6s127.12-92.52,53.41-229.42c-41.37-88.01-183.54-144.42-183.54-144.42,0,0,202.34,27.08,260.26,179.02,27.08,66.95,21.81,169.25-110.57,251.24-5.27-12.04-19.56-56.42-19.56-56.42Z"/>
    <path class="cls-1" d="m1403.04,393.04c-4.19-13.73-15.67-20.15-28.84-16.15-38.61,11.75-77.22,23.53-115.83,35.3-2.3.7-4.52,1.57-6.53,2.93-8.65,5.87-11.73,15.54-8.38,26.57,10.8,35.48,21.62,70.95,32.44,106.42,14.37,47.14,28.75,94.27,43.09,141.42,1.87,6.16,5.08,11.2,10.53,14.61,4.41,2.75,9.22,3.2,14.14,3.16,41.46-12.64,82.92-25.28,124.38-37.92.1-.16.16-.4.3-.47,9.65-4.86,13.91-16.21,10.38-27.76-25.29-82.68-50.46-165.41-75.69-248.11Zm-99.41,24.91c6.31-1.93,12.63-3.85,18.94-5.78,6.31-1.92,12.65-3.8,18.93-5.8,2.43-.77,3.24-.13,3.61.89.48,1.33-.27,2.18-2.48,2.86-12.63,3.85-25.26,7.7-37.89,11.55-2.2.67-3.28.36-3.65-1-.36-1.31.32-2.05,2.53-2.73Zm99.32,257.9c-5.31,1.62-11.28-2.09-13.08-8.13-1.82-6.09,1.08-12.37,6.44-13.95,5.28-1.56,11.04,2.02,12.93,8.02,1.89,6.02-.98,12.44-6.29,14.06Zm51.4-52.29c-41.12,12.44-82.21,24.96-123.27,37.58-2.33.72-3.04.14-3.81-2.43-10.2-33.74-20.51-67.46-30.79-101.18-10.28-33.72-20.53-67.45-30.89-101.15-.77-2.5-.34-3.22,1.77-3.85,41.2-12.48,82.39-25.03,123.54-37.66,2.13-.65,2.86-.24,3.61,2.24,20.49,67.46,41.05,134.9,61.68,202.32.79,2.59.47,3.43-1.84,4.13Z"/>
    <path class="cls-1" d="m853.41,623.76l11.13-70.31s5.79-13,25.81-15.41h116.6s78.77,5.78,89.9-107.87c13.8-85.72,48.51-287.01,48.51-287.01,0,0,9.79-27.45,28.48-28.41,16.91.48,82.34,0,82.34,0,0,0,20.47,7.7,15.58,48.16-10.68,54.9-48.96,284.12-48.96,284.12,0,0-18.69,162.77-205.62,192.14-20.92,0-146.42,3.37-146.42,3.37,0,0-15.13-1.93-17.36-18.78Z"/>
    <path class="cls-1" d="m802.31,265.69c12.47-131.64-110.54-149.77-110.54-149.77,0,0-283.41.95-301.69,0-19.12,6.68-24.93,24.8-24.93,24.8l-74.8,455.02c-5.07,30.87,14.96,42.93,14.96,42.93,0,0,58.18-.95,74.8,0,24.34-9.54,29.17-26.87,29.95-35.99.85-10.02,2.43-19.94,4.18-29.81l22.39-126.89s66.49,0,82.28,1.91c34.08-4.77,60.67,44.83,60.67,44.83,0,0,33.24,89.67,44.88,112.56,7.48,20.99,36.57,33.39,36.57,33.39,0,0,62.33-1.91,84.77,0,24.93-18.12,14.96-27.66,14.96-27.66,0,0-19.12-58.19-29.92-82.99-39.89-111.61-68.98-110.66-68.98-116.38,92.25-15.26,140.46-96.35,140.46-145.95Zm-126.2,13.49c-.66,38.32-28.26,68.77-61.65,68.01h-171.5s14.95-142.38,14.95-142.38l158.94,3.61c33.39.76,59.92,32.44,59.26,70.76h0Z"/>
    <path class="cls-2" d="m881.53,349.71c-5.47-7.67-10.62-16.68-10.81-24.15.2-15.39,10.84-25.44,32.58-24.18,12.35.71,18.64,8.01,21.19,14.67,1.14,2.96,3.93,4.96,7.1,4.99l27.14.28c4.57.05,8.21-3.89,7.7-8.43-1.96-17.52-11.67-30.63-28.02-39.56-12.14-6.63-45.8-8.27-59.3-6.74-12.54,1.42-23.78,5.94-33.49,14.24-19.83,16.95-23.58,47.02-13.79,68.58,3.47,7.65,7.61,14.91,12.47,21.75,1.16,1.63,1.13,2.46-.58,3.68-5.93,4.21-11.47,8.92-16.87,13.8-13.56,12.24-20.75,27.12-19.58,45.7,1.07,16.84,7.59,30.91,20.64,41.77,14.05,11.69,30.7,15.76,48.48,16.24,20.19.55,39.3-3.54,56.84-13.9,1.37-.81,2.04-.48,2.94.58,2.5,2.95,5.1,5.81,7.64,8.73.74.86,1.48,1.45,2.77,1.45,18.22-.05,36.44-.03,55.21-.03-.64-.79-.9-1.15-1.19-1.48-10.09-11.59-22.96-26.01-33.12-37.55-1.42-1.61-1.91-2.72-.32-4.6,1.51-1.8,9.55-5.55,14.65-11.4,4.1-4.7,3.5-11.85-1.28-15.85l-15.08-12.63c-3.87-3.24-9.44-3.48-13.57-.58-6.53,4.59-14.62,9.95-15.8,8.58m-63.71,47.18c-13.31-2.33-24.61-14.54-25.98-27.78-1.36-13.19,2.96-24.67,12.2-34.73,2.16-2.35,3.43-2.47,5.7.21,15.56,18.34,31.33,36.54,47.03,54.79.7.81,1.34,1.67,2.18,2.71-13.4,4.9-26.9,7.28-41.11,4.79Z"/>
    <g>
      <path class="cls-1" d="m108.47,825.47c-5.9,0-11.47-.93-16.69-2.79-5.23-1.86-9.7-4.38-13.42-7.57-3.72-3.19-6.65-7.01-8.8-11.47s-3.21-9.22-3.21-14.28,1.07-9.83,3.21-14.28,5.08-8.28,8.8-11.47,8.2-5.71,13.42-7.55c5.23-1.84,10.79-2.76,16.69-2.76,7.41,0,14.18,1.39,20.33,4.17,6.15,2.78,11.12,6.62,14.92,11.52l-15.51,8.39c-2.18-2.79-5-5-8.46-6.61-3.46-1.61-7.22-2.42-11.28-2.42-6.77,0-12.43,2-16.97,6-4.55,4-6.82,9-6.82,15.02s2.27,11.03,6.82,15.02c4.55,4,10.21,6,16.97,6,4.1,0,7.87-.8,11.31-2.39,3.44-1.59,6.25-3.79,8.43-6.59l15.51,8.39c-3.8,4.9-8.77,8.74-14.92,11.52-6.15,2.78-12.92,4.17-20.33,4.17Z"/>
      <path class="cls-1" d="m171.52,809.48h36.71v14.75h-54.65v-69.72h54.08v14.75h-36.15v12.53h32.31v14.75h-32.31v12.93Z"/>
      <path class="cls-1" d="m238.24,809.48h33.22v14.75h-51.15v-69.72h17.93v54.96Z"/>
      <path class="cls-1" d="m309.63,825.47c-4.66,0-9.05-.72-13.17-2.17s-7.64-3.42-10.57-5.92c-2.93-2.5-5.24-5.5-6.94-9-1.69-3.5-2.54-7.25-2.54-11.22v-42.63h17.88v42.43c0,3.85,1.45,7.05,4.34,9.6,2.9,2.55,6.56,3.82,11,3.82s8.06-1.27,11-3.82c2.93-2.55,4.4-5.75,4.4-9.6v-42.43h17.88v42.63c0,5.3-1.46,10.11-4.37,14.46-2.91,4.34-6.91,7.74-11.98,10.19-5.08,2.45-10.72,3.68-16.92,3.68Z"/>
      <path class="cls-1" d="m374.54,809.48h33.22v14.75h-51.15v-69.72h17.93v54.96Z"/>
      <path class="cls-1" d="m474.3,824.24l-4.96-12.24h-32.37l-4.96,12.24h-19.17l29.95-69.72h21.15l30,69.72h-19.63Zm-31.52-26.69h20.75l-10.38-25.76-10.38,25.76Z"/>
      <path class="cls-1" d="m545.42,824.24l-16.41-23.83h-8.63v23.83h-17.93v-69.72h34.57c7.93,0,14.53,2.22,19.79,6.66,5.26,4.44,7.9,10,7.9,16.68,0,4.84-1.49,9.09-4.46,12.75-2.97,3.67-6.96,6.36-11.96,8.07l18.61,25.56h-21.49Zm-25.04-54.96v17.47h16.24c2.74,0,5.05-.83,6.91-2.49,1.86-1.66,2.79-3.72,2.79-6.19s-.92-4.59-2.76-6.27c-1.84-1.68-4.16-2.52-6.94-2.52h-16.24Z"/>
      <path class="cls-1" d="m593.92,809.48h36.71v14.75h-54.65v-69.72h54.08v14.75h-36.15v12.53h32.31v14.75h-32.31v12.93Z"/>
      <path class="cls-1" d="m671.46,825.47c-6.13,0-12.26-1-18.38-3.01-6.13-2.01-11.28-4.65-15.45-7.94l9.25-11.89c3.31,2.66,7.17,4.81,11.59,6.44,4.42,1.63,8.71,2.44,12.89,2.44,3.68,0,6.81-.64,9.39-1.92,2.58-1.28,3.86-2.93,3.86-4.93,0-.79-.18-1.5-.54-2.15-.36-.64-.96-1.23-1.8-1.75-.85-.53-1.66-.98-2.43-1.36-.77-.38-1.91-.77-3.41-1.18-1.5-.41-2.72-.72-3.64-.94-.92-.21-2.32-.52-4.2-.91-18.57-3.91-27.86-11.33-27.86-22.25,0-6.25,2.82-11.28,8.46-15.1,5.64-3.82,13.06-5.72,22.28-5.72,5.9,0,11.31.79,16.21,2.37,4.91,1.58,8.9,3.65,11.98,6.22l-8.35,11.94c-2.33-1.94-5.32-3.52-8.97-4.74-3.65-1.22-7.31-1.83-11-1.83s-6.5.58-8.8,1.75c-2.29,1.17-3.44,2.67-3.44,4.51,0,1.09.39,2.07,1.18,2.96.79.89,1.93,1.65,3.41,2.27,1.48.63,3.01,1.15,4.57,1.58,1.56.43,3.36.82,5.39,1.18,1.39.26,2.69.54,3.89.81,1.2.28,2.86.74,4.96,1.38,2.11.64,4,1.33,5.7,2.07,1.69.74,3.5,1.71,5.41,2.91,1.92,1.2,3.52,2.5,4.82,3.9,1.3,1.4,2.38,3.08,3.24,5.03.86,1.96,1.3,4.05,1.3,6.29,0,4.18-1.39,7.92-4.17,11.22-2.78,3.31-6.56,5.85-11.34,7.65-4.77,1.79-10.11,2.69-16.02,2.69Z"/>
      <path class="cls-1" d="m755.94,809.48h36.71v14.75h-54.65v-69.72h54.08v14.75h-36.15v12.53h32.31v14.75h-32.31v12.93Z"/>
      <path class="cls-1" d="m884.86,824.24l-4.96-12.24h-32.37l-4.96,12.24h-19.17l29.95-69.72h21.15l30,69.72h-19.62Zm-31.53-26.69h20.75l-10.38-25.76-10.38,25.76Z"/>
      <path class="cls-1" d="m945.94,825.47c-5.9,0-11.47-.93-16.69-2.79-5.23-1.86-9.7-4.38-13.42-7.57-3.72-3.19-6.66-7.01-8.8-11.47s-3.22-9.22-3.22-14.28,1.07-9.83,3.22-14.28,5.08-8.28,8.8-11.47c3.72-3.19,8.19-5.71,13.42-7.55,5.23-1.84,10.79-2.76,16.69-2.76,7.41,0,14.18,1.39,20.33,4.17,6.15,2.78,11.12,6.62,14.92,11.52l-15.51,8.39c-2.18-2.79-5-5-8.46-6.61-3.46-1.61-7.22-2.42-11.28-2.42-6.77,0-12.43,2-16.97,6-4.55,4-6.82,9-6.82,15.02s2.27,11.03,6.82,15.02c4.55,4,10.21,6,16.97,6,4.1,0,7.87-.8,11.31-2.39,3.44-1.59,6.25-3.79,8.43-6.59l15.51,8.39c-3.8,4.9-8.77,8.74-14.92,11.52-6.15,2.78-12.92,4.17-20.33,4.17Z"/>
      <path class="cls-1" d="m1008.99,809.48h36.71v14.75h-54.65v-69.72h54.08v14.75h-36.15v12.53h32.31v14.75h-32.31v12.93Z"/>
      <path class="cls-1" d="m1086.53,825.47c-6.13,0-12.26-1-18.38-3.01-6.13-2.01-11.28-4.65-15.45-7.94l9.25-11.89c3.31,2.66,7.17,4.81,11.59,6.44,4.42,1.63,8.71,2.44,12.89,2.44,3.68,0,6.81-.64,9.39-1.92,2.57-1.28,3.86-2.93,3.86-4.93,0-.79-.18-1.5-.54-2.15-.36-.64-.96-1.23-1.8-1.75-.85-.53-1.65-.98-2.42-1.36-.77-.38-1.91-.77-3.41-1.18-1.5-.41-2.72-.72-3.64-.94-.92-.21-2.32-.52-4.2-.91-18.57-3.91-27.86-11.33-27.86-22.25,0-6.25,2.82-11.28,8.46-15.1,5.64-3.82,13.07-5.72,22.28-5.72,5.9,0,11.31.79,16.21,2.37,4.91,1.58,8.9,3.65,11.98,6.22l-8.35,11.94c-2.33-1.94-5.32-3.52-8.97-4.74-3.65-1.22-7.31-1.83-11-1.83s-6.5.58-8.8,1.75-3.44,2.67-3.44,4.51c0,1.09.4,2.07,1.18,2.96s1.93,1.65,3.41,2.27c1.49.63,3.01,1.15,4.57,1.58,1.56.43,3.36.82,5.39,1.18,1.39.26,2.69.54,3.89.81,1.2.28,2.86.74,4.96,1.38,2.11.64,4,1.33,5.7,2.07,1.69.74,3.5,1.71,5.41,2.91,1.92,1.2,3.52,2.5,4.82,3.9,1.3,1.4,2.38,3.08,3.24,5.03.86,1.96,1.3,4.05,1.3,6.29,0,4.18-1.39,7.92-4.17,11.22-2.78,3.31-6.56,5.85-11.34,7.65-4.77,1.79-10.11,2.69-16.02,2.69Z"/>
      <path class="cls-1" d="m1156.12,825.47c-6.13,0-12.26-1-18.38-3.01-6.13-2.01-11.28-4.65-15.45-7.94l9.25-11.89c3.31,2.66,7.17,4.81,11.59,6.44,4.42,1.63,8.71,2.44,12.89,2.44,3.68,0,6.81-.64,9.39-1.92,2.57-1.28,3.86-2.93,3.86-4.93,0-.79-.18-1.5-.54-2.15-.36-.64-.96-1.23-1.8-1.75-.85-.53-1.65-.98-2.42-1.36-.77-.38-1.91-.77-3.41-1.18-1.5-.41-2.72-.72-3.64-.94-.92-.21-2.32-.52-4.2-.91-18.57-3.91-27.86-11.33-27.86-22.25,0-6.25,2.82-11.28,8.46-15.1,5.64-3.82,13.07-5.72,22.28-5.72,5.9,0,11.31.79,16.21,2.37,4.91,1.58,8.9,3.65,11.98,6.22l-8.35,11.94c-2.33-1.94-5.32-3.52-8.97-4.74-3.65-1.22-7.31-1.83-11-1.83s-6.5.58-8.8,1.75-3.44,2.67-3.44,4.51c0,1.09.4,2.07,1.18,2.96.79.89,1.93,1.65,3.41,2.27,1.49.63,3.01,1.15,4.57,1.58,1.56.43,3.36.82,5.39,1.18,1.39.26,2.69.54,3.89.81,1.2.28,2.86.74,4.96,1.38,2.11.64,4,1.33,5.7,2.07,1.69.74,3.5,1.71,5.41,2.91,1.92,1.2,3.52,2.5,4.82,3.9,1.3,1.4,2.38,3.08,3.24,5.03.86,1.96,1.3,4.05,1.3,6.29,0,4.18-1.39,7.92-4.17,11.22-2.78,3.31-6.56,5.85-11.34,7.65-4.77,1.79-10.11,2.69-16.02,2.69Z"/>
      <path class="cls-1" d="m1252.19,822.68c-5.21,1.86-10.76,2.79-16.66,2.79s-11.47-.93-16.69-2.79c-5.23-1.86-9.7-4.38-13.42-7.57-3.72-3.19-6.66-7.01-8.8-11.47s-3.22-9.22-3.22-14.28,1.07-9.83,3.22-14.28c2.14-4.46,5.08-8.28,8.8-11.47,3.72-3.19,8.19-5.71,13.42-7.55,5.23-1.84,10.79-2.76,16.69-2.76,7.86,0,15.01,1.57,21.46,4.71,6.45,3.14,11.51,7.47,15.2,12.98,3.68,5.51,5.53,11.64,5.53,18.38,0,5.07-1.08,9.83-3.24,14.28-2.16,4.46-5.11,8.28-8.85,11.47-3.74,3.19-8.22,5.72-13.42,7.57Zm-33.64-18.31c4.55,4,10.21,6,16.97,6s12.43-2,16.97-6c4.55-4,6.82-9,6.82-15.02s-2.27-11.03-6.82-15.02c-4.55-4-10.21-6-16.97-6s-12.43,2-16.97,6c-4.55,4-6.82,9-6.82,15.02s2.27,11.03,6.82,15.02Zm7.28-55.14l11.56-14.95h21.15l-15.06,14.95h-17.65Z"/>
      <path class="cls-1" d="m1331.85,824.24l-16.41-23.83h-8.63v23.83h-17.93v-69.72h34.57c7.93,0,14.53,2.22,19.79,6.66,5.26,4.44,7.9,10,7.9,16.68,0,4.84-1.49,9.09-4.46,12.75-2.97,3.67-6.96,6.36-11.96,8.07l18.61,25.56h-21.49Zm-25.04-54.96v17.47h16.24c2.74,0,5.05-.83,6.91-2.49,1.86-1.66,2.79-3.72,2.79-6.19s-.92-4.59-2.76-6.27c-1.84-1.68-4.15-2.52-6.94-2.52h-16.24Z"/>
      <path class="cls-1" d="m1362.42,824.24v-69.72h17.93v69.72h-17.93Z"/>
      <path class="cls-1" d="m1450.42,822.68c-5.21,1.86-10.76,2.79-16.66,2.79s-11.47-.93-16.69-2.79c-5.23-1.86-9.7-4.38-13.42-7.57-3.72-3.19-6.66-7.01-8.8-11.47s-3.22-9.22-3.22-14.28,1.07-9.83,3.22-14.28,5.08-8.28,8.8-11.47c3.72-3.19,8.19-5.71,13.42-7.55,5.23-1.84,10.79-2.76,16.69-2.76,7.86,0,15.01,1.57,21.46,4.71,6.45,3.14,11.51,7.47,15.2,12.98,3.68,5.51,5.53,11.64,5.53,18.38,0,5.07-1.08,9.83-3.24,14.28-2.16,4.46-5.11,8.28-8.85,11.47-3.74,3.19-8.22,5.72-13.42,7.57Zm-33.64-18.31c4.55,4,10.21,6,16.97,6s12.43-2,16.97-6c4.55-4,6.82-9,6.82-15.02s-2.27-11.03-6.82-15.02c-4.55-4-10.21-6-16.97-6s-12.43,2-16.97,6c-4.55,4-6.82,9-6.82,15.02s2.27,11.03,6.82,15.02Z"/>
      <path class="cls-1" d="m1515.53,825.47c-6.13,0-12.26-1-18.38-3.01-6.13-2.01-11.28-4.65-15.45-7.94l9.25-11.89c3.31,2.66,7.17,4.81,11.59,6.44,4.42,1.63,8.71,2.44,12.89,2.44,3.68,0,6.81-.64,9.39-1.92,2.57-1.28,3.86-2.93,3.86-4.93,0-.79-.18-1.5-.54-2.15-.36-.64-.96-1.23-1.8-1.75-.85-.53-1.65-.98-2.42-1.36-.77-.38-1.91-.77-3.41-1.18-1.5-.41-2.72-.72-3.64-.94-.92-.21-2.32-.52-4.2-.91-18.57-3.91-27.86-11.33-27.86-22.25,0-6.25,2.82-11.28,8.46-15.1,5.64-3.82,13.07-5.72,22.28-5.72,5.9,0,11.31.79,16.21,2.37,4.91,1.58,8.9,3.65,11.98,6.22l-8.35,11.94c-2.33-1.94-5.32-3.52-8.97-4.74-3.65-1.22-7.31-1.83-11-1.83s-6.5.58-8.8,1.75-3.44,2.67-3.44,4.51c0,1.09.4,2.07,1.18,2.96s1.93,1.65,3.41,2.27c1.49.63,3.01,1.15,4.57,1.58,1.56.43,3.36.82,5.39,1.18,1.39.26,2.69.54,3.89.81,1.2.28,2.86.74,4.96,1.38,2.11.64,4,1.33,5.7,2.07,1.69.74,3.5,1.71,5.41,2.91,1.92,1.2,3.52,2.5,4.82,3.9,1.3,1.4,2.38,3.08,3.24,5.03.86,1.96,1.3,4.05,1.3,6.29,0,4.18-1.39,7.92-4.17,11.22-2.78,3.31-6.56,5.85-11.34,7.65-4.77,1.79-10.11,2.69-16.02,2.69Z"/>
    </g>
  </g>
</svg>